<svg width="20" height="20" viewBox="0 0 20 20" fill="none" xmlns="http://www.w3.org/2000/svg">
<path fill-rule="evenodd" clip-rule="evenodd" d="M10.0002 0.833496C4.93766 0.833496 0.833496 4.93766 0.833496 10.0002C0.833496 15.0627 4.93766 19.1668 10.0002 19.1668C15.0627 19.1668 19.1668 15.0627 19.1668 10.0002C19.1668 4.93766 15.0627 0.833496 10.0002 0.833496ZM10.8335 13.3335C10.8335 13.5545 10.7457 13.7665 10.5894 13.9228C10.4331 14.079 10.2212 14.1668 10.0002 14.1668C9.77915 14.1668 9.56719 14.079 9.41091 13.9228C9.25463 13.7665 9.16683 13.5545 9.16683 13.3335V10.8335H6.66683C6.44582 10.8335 6.23385 10.7457 6.07757 10.5894C5.92129 10.4331 5.8335 10.2212 5.8335 10.0002C5.8335 9.77915 5.92129 9.56719 6.07757 9.41091C6.23385 9.25463 6.44582 9.16683 6.66683 9.16683H9.16683V6.66683C9.16683 6.44582 9.25463 6.23385 9.41091 6.07757C9.56719 5.92129 9.77915 5.8335 10.0002 5.8335C10.2212 5.8335 10.4331 5.92129 10.5894 6.07757C10.7457 6.23385 10.8335 6.44582 10.8335 6.66683V9.16683H13.3335C13.5545 9.16683 13.7665 9.25463 13.9228 9.41091C14.079 9.56719 14.1668 9.77915 14.1668 10.0002C14.1668 10.2212 14.079 10.4331 13.9228 10.5894C13.7665 10.7457 13.5545 10.8335 13.3335 10.8335H10.8335V13.3335Z" fill="#008E97"/>
</svg>
