<svg width="25" height="25" viewBox="0 0 25 25" fill="none" xmlns="http://www.w3.org/2000/svg">
<path d="M17.0655 8.61816H15.9205C15.6715 8.61816 15.4346 8.73779 15.2882 8.94287L11.4503 14.2651L9.71198 11.853C9.56549 11.6504 9.33112 11.5283 9.07965 11.5283H7.93464C7.77594 11.5283 7.68317 11.709 7.77594 11.8384L10.8179 16.0571C10.8898 16.1574 10.9845 16.2392 11.0943 16.2955C11.204 16.3519 11.3257 16.3813 11.449 16.3813C11.5724 16.3813 11.694 16.3519 11.8038 16.2955C11.9135 16.2392 12.0083 16.1574 12.0801 16.0571L17.2217 8.92822C17.317 8.79883 17.2242 8.61816 17.0655 8.61816Z" fill="#F8F8F8"/>
<path d="M12.5 1.5625C6.45996 1.5625 1.5625 6.45996 1.5625 12.5C1.5625 18.54 6.45996 23.4375 12.5 23.4375C18.54 23.4375 23.4375 18.54 23.4375 12.5C23.4375 6.45996 18.54 1.5625 12.5 1.5625ZM12.5 21.582C7.48535 21.582 3.41797 17.5146 3.41797 12.5C3.41797 7.48535 7.48535 3.41797 12.5 3.41797C17.5146 3.41797 21.582 7.48535 21.582 12.5C21.582 17.5146 17.5146 21.582 12.5 21.582Z" fill="#F8F8F8"/>
</svg>
