<svg width="68" height="80" viewBox="0 0 68 80" fill="none" xmlns="http://www.w3.org/2000/svg">
<path d="M62.125 28.75H39.625V6.25H5.875V73.75H62.125V28.75ZM59.7963 23.125L45.25 8.57875V23.125H59.7963ZM3.0625 0.625H45.25L67.75 23.125V76.5625C67.75 77.3084 67.4537 78.0238 66.9262 78.5512C66.3988 79.0787 65.6834 79.375 64.9375 79.375H3.0625C2.31658 79.375 1.60121 79.0787 1.07376 78.5512C0.546317 78.0238 0.25 77.3084 0.25 76.5625V3.4375C0.25 2.69158 0.546317 1.97621 1.07376 1.44876C1.60121 0.921316 2.31658 0.625 3.0625 0.625ZM17.125 40H50.875V45.625H17.125V40ZM17.125 23.125H31.1875V28.75H17.125V23.125ZM17.125 56.875H50.875V62.5H17.125V56.875Z" fill="black"/>
</svg>
