<svg width="20" height="14" viewBox="0 0 20 14" fill="none" xmlns="http://www.w3.org/2000/svg">
<path d="M17.7142 6.13484C18.1092 6.6515 18.1092 7.349 17.7142 7.86484C16.47 9.489 13.485 12.8332 9.99999 12.8332C6.51499 12.8332 3.52999 9.489 2.28582 7.86484C2.09364 7.61745 1.98932 7.3131 1.98932 6.99984C1.98932 6.68657 2.09364 6.38223 2.28582 6.13484C3.52999 4.51067 6.51499 1.1665 9.99999 1.1665C13.485 1.1665 16.47 4.51067 17.7142 6.13484V6.13484Z" stroke="#F8F8F8" stroke-width="2" stroke-linecap="round" stroke-linejoin="round"/>
<path d="M10 9.5C11.3807 9.5 12.5 8.38071 12.5 7C12.5 5.61929 11.3807 4.5 10 4.5C8.61929 4.5 7.5 5.61929 7.5 7C7.5 8.38071 8.61929 9.5 10 9.5Z" stroke="#F8F8F8" stroke-width="2" stroke-linecap="round" stroke-linejoin="round"/>
</svg>
