<svg
  width="99"
  height="131"
  viewBox="0 0 99 131"
  fill="none"
  xmlns="http://www.w3.org/2000/svg"
>
<g filter="url(#filter0_d_649_54)">
<rect x="6" y="6" width="79" height="111" fill="#EFEEEE" />
<rect x="6.5" y="6.5" width="78" height="110" stroke="#A68989" />
</g>
<path
    d="M18.2557 82.7273H19.2642L21.2812 86.1222H21.3665L23.3835 82.7273H24.392L21.7642 87.0028V90H20.8835V87.0028L18.2557 82.7273ZM26.3097 90.1278C25.964 90.1278 25.6503 90.0627 25.3686 89.9325C25.0869 89.8 24.8632 89.6094 24.6974 89.3608C24.5317 89.1098 24.4489 88.8068 24.4489 88.4517C24.4489 88.1392 24.5104 87.8859 24.6335 87.6918C24.7566 87.4953 24.9212 87.3414 25.1271 87.2301C25.3331 87.1188 25.5604 87.036 25.8089 86.9815C26.0599 86.9247 26.312 86.8797 26.5653 86.8466C26.8968 86.804 27.1655 86.772 27.3714 86.7507C27.5798 86.727 27.7313 86.688 27.826 86.6335C27.9231 86.5791 27.9716 86.4844 27.9716 86.3494V86.321C27.9716 85.9706 27.8757 85.6984 27.6839 85.5043C27.4946 85.3101 27.2069 85.2131 26.821 85.2131C26.4209 85.2131 26.1072 85.3007 25.88 85.4759C25.6527 85.651 25.4929 85.8381 25.4006 86.0369L24.6051 85.7528C24.7472 85.4214 24.9366 85.1634 25.1733 84.9787C25.4124 84.7917 25.6728 84.6615 25.9545 84.5881C26.2386 84.5123 26.518 84.4744 26.7926 84.4744C26.9678 84.4744 27.169 84.4957 27.3963 84.5384C27.6259 84.5786 27.8473 84.6626 28.0604 84.7905C28.2758 84.9183 28.4545 85.1113 28.5966 85.3693C28.7386 85.6274 28.8097 85.973 28.8097 86.4062V90H27.9716V89.2614H27.929C27.8722 89.3797 27.7775 89.5064 27.6449 89.6413C27.5123 89.7763 27.3359 89.8911 27.1158 89.9858C26.8956 90.0805 26.6269 90.1278 26.3097 90.1278ZM26.4375 89.375C26.7689 89.375 27.0483 89.3099 27.2756 89.1797C27.5052 89.0495 27.678 88.8814 27.794 88.6754C27.9124 88.4695 27.9716 88.2528 27.9716 88.0256V87.2585C27.9361 87.3011 27.858 87.3402 27.7372 87.3757C27.6188 87.4089 27.4815 87.4384 27.3253 87.4645C27.1714 87.4882 27.0211 87.5095 26.8743 87.5284C26.7299 87.545 26.6127 87.5592 26.5227 87.571C26.3049 87.5994 26.1013 87.6456 25.9119 87.7095C25.7249 87.7711 25.5734 87.8646 25.4574 87.9901C25.3438 88.1132 25.2869 88.2812 25.2869 88.4943C25.2869 88.7855 25.3946 89.0057 25.6101 89.1548C25.8279 89.3016 26.1037 89.375 26.4375 89.375ZM31.1774 86.7188V90H30.3393V84.5455H31.149V85.3977H31.22C31.3478 85.1207 31.542 84.8982 31.8024 84.7301C32.0628 84.5597 32.399 84.4744 32.8109 84.4744C33.1802 84.4744 33.5034 84.5502 33.7804 84.7017C34.0574 84.8509 34.2728 85.0781 34.4267 85.3835C34.5806 85.6866 34.6575 86.0701 34.6575 86.5341V90H33.8194V86.5909C33.8194 86.1624 33.7082 85.8286 33.4856 85.5895C33.2631 85.348 32.9577 85.2273 32.5694 85.2273C32.3019 85.2273 32.0628 85.2853 31.8521 85.4013C31.6438 85.5173 31.4792 85.6866 31.3585 85.9091C31.2377 86.1316 31.1774 86.4015 31.1774 86.7188ZM38.3906 92.1591C37.9858 92.1591 37.6378 92.107 37.3466 92.0028C37.0554 91.901 36.8127 91.7661 36.6186 91.598C36.4268 91.4323 36.2741 91.2547 36.1605 91.0653L36.8281 90.5966C36.9039 90.696 36.9998 90.8097 37.1158 90.9375C37.2318 91.0677 37.3904 91.1802 37.5916 91.2749C37.7952 91.3719 38.0616 91.4205 38.3906 91.4205C38.831 91.4205 39.1944 91.3139 39.4808 91.1009C39.7673 90.8878 39.9105 90.554 39.9105 90.0994V88.9915H39.8395C39.7779 89.0909 39.6903 89.214 39.5767 89.3608C39.4654 89.5052 39.3045 89.6342 39.0938 89.7479C38.8854 89.8591 38.6037 89.9148 38.2486 89.9148C37.8082 89.9148 37.4129 89.8106 37.0625 89.6023C36.7145 89.3939 36.4387 89.0909 36.2351 88.6932C36.0339 88.2955 35.9332 87.8125 35.9332 87.2443C35.9332 86.6856 36.0315 86.1991 36.228 85.7848C36.4245 85.3681 36.6979 85.0462 37.0483 84.8189C37.3987 84.5893 37.8035 84.4744 38.2628 84.4744C38.6179 84.4744 38.8996 84.5336 39.108 84.652C39.3187 84.768 39.4796 84.9006 39.5909 85.0497C39.7045 85.1965 39.7921 85.3172 39.8537 85.4119H39.9389V84.5455H40.7486V90.1562C40.7486 90.625 40.642 91.0062 40.429 91.2997C40.2183 91.5956 39.9342 91.8123 39.5767 91.9496C39.2216 92.0893 38.8262 92.1591 38.3906 92.1591ZM38.3622 89.1619C38.6984 89.1619 38.9825 89.085 39.2145 88.9311C39.4465 88.7772 39.6229 88.5559 39.7436 88.267C39.8643 87.9782 39.9247 87.6326 39.9247 87.2301C39.9247 86.8371 39.8655 86.4903 39.7472 86.1896C39.6288 85.889 39.4536 85.6534 39.2216 85.483C38.9896 85.3125 38.7031 85.2273 38.3622 85.2273C38.0071 85.2273 37.7112 85.3172 37.4744 85.4972C37.2401 85.6771 37.0637 85.9186 36.9453 86.2216C36.8293 86.5246 36.7713 86.8608 36.7713 87.2301C36.7713 87.6089 36.8305 87.9439 36.9489 88.2351C37.0696 88.5239 37.2472 88.7512 37.4815 88.9169C37.7183 89.0803 38.0118 89.1619 38.3622 89.1619ZM42.2827 90V84.5455H43.1207V90H42.2827ZM42.7088 83.6364C42.5455 83.6364 42.4046 83.5807 42.2862 83.4695C42.1702 83.3582 42.1122 83.2244 42.1122 83.0682C42.1122 82.9119 42.1702 82.7782 42.2862 82.6669C42.4046 82.5556 42.5455 82.5 42.7088 82.5C42.8722 82.5 43.0118 82.5556 43.1278 82.6669C43.2462 82.7782 43.3054 82.9119 43.3054 83.0682C43.3054 83.2244 43.2462 83.3582 43.1278 83.4695C43.0118 83.5807 42.8722 83.6364 42.7088 83.6364ZM48.3063 86.7188V90H47.4682V82.7273H48.3063V85.3977H48.3773C48.5051 85.116 48.6969 84.8923 48.9526 84.7266C49.2106 84.5585 49.5539 84.4744 49.9824 84.4744C50.3541 84.4744 50.6796 84.549 50.959 84.6982C51.2383 84.8449 51.455 85.071 51.6088 85.3764C51.7651 85.6795 51.8432 86.0653 51.8432 86.5341V90H51.0051V86.5909C51.0051 86.1577 50.8927 85.8227 50.6678 85.5859C50.4453 85.3468 50.1363 85.2273 49.7409 85.2273C49.4663 85.2273 49.2201 85.2853 49.0023 85.4013C48.7869 85.5173 48.6164 85.6866 48.4909 85.9091C48.3678 86.1316 48.3063 86.4015 48.3063 86.7188ZM56.8139 87.7699V84.5455H57.652V90H56.8139V89.0767H56.7571C56.6293 89.3537 56.4304 89.5893 56.1605 89.7834C55.8906 89.9751 55.5497 90.071 55.1378 90.071C54.7969 90.071 54.4938 89.9964 54.2287 89.8473C53.9635 89.6958 53.7552 89.4685 53.6037 89.1655C53.4522 88.8601 53.3764 88.4754 53.3764 88.0114V84.5455H54.2145V87.9545C54.2145 88.3523 54.3258 88.6695 54.5483 88.9062C54.7732 89.143 55.0597 89.2614 55.4077 89.2614C55.616 89.2614 55.8279 89.2081 56.0433 89.1016C56.2611 88.995 56.4434 88.8317 56.5902 88.6115C56.7393 88.3913 56.8139 88.1108 56.8139 87.7699ZM59.187 84.5455H60.025V90.3977C60.025 90.7339 59.967 91.0251 59.851 91.2713C59.7374 91.5175 59.5646 91.7081 59.3326 91.843C59.1029 91.978 58.8129 92.0455 58.4625 92.0455C58.4341 92.0455 58.4057 92.0455 58.3773 92.0455C58.3489 92.0455 58.3205 92.0455 58.2921 92.0455V91.2642C58.3205 91.2642 58.3465 91.2642 58.3702 91.2642C58.3939 91.2642 58.4199 91.2642 58.4483 91.2642C58.704 91.2642 58.891 91.1884 59.0094 91.0369C59.1278 90.8878 59.187 90.6747 59.187 90.3977V84.5455ZM59.5989 83.6364C59.4355 83.6364 59.2947 83.5807 59.1763 83.4695C59.0603 83.3582 59.0023 83.2244 59.0023 83.0682C59.0023 82.9119 59.0603 82.7782 59.1763 82.6669C59.2947 82.5556 59.4355 82.5 59.5989 82.5C59.7623 82.5 59.9019 82.5556 60.0179 82.6669C60.1363 82.7782 60.1955 82.9119 60.1955 83.0682C60.1955 83.2244 60.1363 83.3582 60.0179 83.4695C59.9019 83.5807 59.7623 83.6364 59.5989 83.6364ZM61.56 84.5455H62.3981V90.3977C62.3981 90.7339 62.3401 91.0251 62.2241 91.2713C62.1104 91.5175 61.9376 91.7081 61.7056 91.843C61.476 91.978 61.186 92.0455 60.8356 92.0455C60.8072 92.0455 60.7788 92.0455 60.7504 92.0455C60.7219 92.0455 60.6935 92.0455 60.6651 92.0455V91.2642C60.6935 91.2642 60.7196 91.2642 60.7433 91.2642C60.7669 91.2642 60.793 91.2642 60.8214 91.2642C61.0771 91.2642 61.2641 91.1884 61.3825 91.0369C61.5008 90.8878 61.56 90.6747 61.56 90.3977V84.5455ZM61.9719 83.6364C61.8086 83.6364 61.6677 83.5807 61.5494 83.4695C61.4334 83.3582 61.3754 83.2244 61.3754 83.0682C61.3754 82.9119 61.4334 82.7782 61.5494 82.6669C61.6677 82.5556 61.8086 82.5 61.9719 82.5C62.1353 82.5 62.275 82.5556 62.391 82.6669C62.5094 82.7782 62.5685 82.9119 62.5685 83.0682C62.5685 83.2244 62.5094 83.3582 62.391 83.4695C62.275 83.5807 62.1353 83.6364 61.9719 83.6364ZM65.5382 90.1278C65.1925 90.1278 64.8788 90.0627 64.5971 89.9325C64.3154 89.8 64.0917 89.6094 63.926 89.3608C63.7602 89.1098 63.6774 88.8068 63.6774 88.4517C63.6774 88.1392 63.7389 87.8859 63.862 87.6918C63.9851 87.4953 64.1497 87.3414 64.3556 87.2301C64.5616 87.1188 64.7889 87.036 65.0375 86.9815C65.2884 86.9247 65.5405 86.8797 65.7939 86.8466C66.1253 86.804 66.394 86.772 66.6 86.7507C66.8083 86.727 66.9598 86.688 67.0545 86.6335C67.1516 86.5791 67.2001 86.4844 67.2001 86.3494V86.321C67.2001 85.9706 67.1042 85.6984 66.9125 85.5043C66.7231 85.3101 66.4354 85.2131 66.0495 85.2131C65.6494 85.2131 65.3358 85.3007 65.1085 85.4759C64.8812 85.651 64.7214 85.8381 64.6291 86.0369L63.8336 85.7528C63.9757 85.4214 64.1651 85.1634 64.4018 84.9787C64.6409 84.7917 64.9013 84.6615 65.1831 84.5881C65.4672 84.5123 65.7465 84.4744 66.0211 84.4744C66.1963 84.4744 66.3975 84.4957 66.6248 84.5384C66.8545 84.5786 67.0758 84.6626 67.2889 84.7905C67.5043 84.9183 67.6831 85.1113 67.8251 85.3693C67.9672 85.6274 68.0382 85.973 68.0382 86.4062V90H67.2001V89.2614H67.1575C67.1007 89.3797 67.006 89.5064 66.8734 89.6413C66.7408 89.7763 66.5645 89.8911 66.3443 89.9858C66.1241 90.0805 65.8554 90.1278 65.5382 90.1278ZM65.666 89.375C65.9975 89.375 66.2768 89.3099 66.5041 89.1797C66.7337 89.0495 66.9065 88.8814 67.0225 88.6754C67.1409 88.4695 67.2001 88.2528 67.2001 88.0256V87.2585C67.1646 87.3011 67.0865 87.3402 66.9657 87.3757C66.8474 87.4089 66.71 87.4384 66.5538 87.4645C66.3999 87.4882 66.2496 87.5095 66.1028 87.5284C65.9584 87.545 65.8412 87.5592 65.7512 87.571C65.5334 87.5994 65.3298 87.6456 65.1404 87.7095C64.9534 87.7711 64.8019 87.8646 64.6859 87.9901C64.5723 88.1132 64.5154 88.2812 64.5154 88.4943C64.5154 88.7855 64.6232 89.0057 64.8386 89.1548C65.0564 89.3016 65.3322 89.375 65.666 89.375ZM71.94 84.5455V85.2557H69.1133V84.5455H71.94ZM69.9371 83.2386H70.7752V88.4375C70.7752 88.6742 70.8095 88.8518 70.8782 88.9702C70.9492 89.0862 71.0392 89.1643 71.1481 89.2045C71.2594 89.2424 71.3765 89.2614 71.4996 89.2614C71.592 89.2614 71.6677 89.2566 71.7269 89.2472C71.7861 89.2353 71.8335 89.2259 71.869 89.2188L72.0394 89.9716C71.9826 89.9929 71.9033 90.0142 71.8015 90.0355C71.6997 90.0592 71.5707 90.071 71.4144 90.071C71.1777 90.071 70.9457 90.0201 70.7184 89.9183C70.4935 89.8165 70.3065 89.6615 70.1573 89.4531C70.0105 89.2448 69.9371 88.982 69.9371 88.6648V83.2386Z"
    fill="#6D7177"
  />
<path
    d="M49.9922 51.7188H46.2812V48.0078C46.2812 47.9004 46.1934 47.8125 46.0859 47.8125H44.9141C44.8066 47.8125 44.7188 47.9004 44.7188 48.0078V51.7188H41.0078C40.9004 51.7188 40.8125 51.8066 40.8125 51.9141V53.0859C40.8125 53.1934 40.9004 53.2812 41.0078 53.2812H44.7188V56.9922C44.7188 57.0996 44.8066 57.1875 44.9141 57.1875H46.0859C46.1934 57.1875 46.2812 57.0996 46.2812 56.9922V53.2812H49.9922C50.0996 53.2812 50.1875 53.1934 50.1875 53.0859V51.9141C50.1875 51.8066 50.0996 51.7188 49.9922 51.7188Z"
    fill="#07AED2"
  />
<path
    d="M45.5 41.5625C39.46 41.5625 34.5625 46.46 34.5625 52.5C34.5625 58.54 39.46 63.4375 45.5 63.4375C51.54 63.4375 56.4375 58.54 56.4375 52.5C56.4375 46.46 51.54 41.5625 45.5 41.5625ZM45.5 61.582C40.4854 61.582 36.418 57.5146 36.418 52.5C36.418 47.4854 40.4854 43.418 45.5 43.418C50.5146 43.418 54.582 47.4854 54.582 52.5C54.582 57.5146 50.5146 61.582 45.5 61.582Z"
    fill="#07AED2"
  />
<defs>
<filter
      id="filter0_d_649_54"
      x="0"
      y="0"
      width="99"
      height="131"
      filterUnits="userSpaceOnUse"
      color-interpolation-filters="sRGB"
    >
<feFlood flood-opacity="0" result="BackgroundImageFix" />
<feColorMatrix
        in="SourceAlpha"
        type="matrix"
        values="0 0 0 0 0 0 0 0 0 0 0 0 0 0 0 0 0 0 127 0"
        result="hardAlpha"
      />
<feOffset dx="4" dy="4" />
<feGaussianBlur stdDeviation="5" />
<feComposite in2="hardAlpha" operator="out" />
<feColorMatrix
        type="matrix"
        values="0 0 0 0 0 0 0 0 0 0 0 0 0 0 0 0 0 0 0.25 0"
      />
<feBlend
        mode="normal"
        in2="BackgroundImageFix"
        result="effect1_dropShadow_649_54"
      />
<feBlend
        mode="normal"
        in="SourceGraphic"
        in2="effect1_dropShadow_649_54"
        result="shape"
      />
</filter>
</defs>
</svg>
