<svg width="18" height="18" viewBox="0 0 18 18" fill="none" xmlns="http://www.w3.org/2000/svg">
<path fill-rule="evenodd" clip-rule="evenodd" d="M17.9953 4.26909C17.8894 2.36218 16.0023 0.84375 13.6892 0.84375H8.93128L8.72784 0.847669C6.43556 0.936181 4.61074 2.51276 4.61074 4.44563V5.20354L4.61741 5.28621C4.66579 5.58359 4.97149 5.81279 5.34139 5.81279C5.74491 5.81279 6.07203 5.54002 6.07203 5.20354V4.44563L6.07688 4.30555C6.1638 3.05409 7.40789 2.06225 8.93128 2.06225H13.6892L13.8567 2.06628C15.3528 2.13853 16.5387 3.17264 16.5387 4.43832V13.4877L16.5339 13.6278C16.4469 14.8792 15.2021 15.8719 13.6795 15.8719H8.92056L8.75322 15.8679C7.25821 15.7956 6.07203 14.7609 6.07203 13.4958V12.7306L6.06536 12.6479C6.01698 12.3506 5.71128 12.1214 5.34139 12.1214C4.93786 12.1214 4.61074 12.3941 4.61074 12.7306V13.4958L4.61571 13.67C4.72465 15.5739 6.61053 17.0904 8.92056 17.0904H13.6795L13.8829 17.0865C16.1745 16.9979 18 15.4204 18 13.4877V4.43832L17.9953 4.26909ZM9.09087 6.1684C9.34973 5.95166 9.75559 5.9313 10.0421 6.10778L10.1242 6.16663L12.9766 8.53538C13.2373 8.75186 13.261 9.09148 13.0477 9.33035L13.0476 9.33047C13.0238 9.35714 12.9974 9.38213 12.9688 9.40519L10.1242 11.7675C9.83823 12.005 9.37562 12.0042 9.09087 11.7657C8.83201 11.549 8.80926 11.2105 9.02208 10.9724L9.09299 10.9041L10.6912 9.57652H0.730644C0.32712 9.57652 0 9.30374 0 8.96726C0 8.65882 0.274872 8.40391 0.6315 8.36356L0.730644 8.358H10.6914L9.09299 7.03C8.83307 6.81415 8.80865 6.47572 9.0203 6.23685L9.09087 6.1684Z" fill="#524545"/>
</svg>
