<svg width="34" height="40" viewBox="0 0 34 40" fill="none" xmlns="http://www.w3.org/2000/svg">
<path d="M32.7598 8.45898L25.7285 1.42773C25.3287 1.03726 24.7932 0.81677 24.2344 0.8125H10.1719C9.2409 0.81712 8.34937 1.189 7.69106 1.84731C7.03275 2.50562 6.66087 3.39715 6.65625 4.32812V7.84375H3.84375C2.91277 7.84837 2.02124 8.22025 1.36293 8.87856C0.704624 9.53687 0.332745 10.4284 0.328125 11.3594V35.9688C0.332745 36.8997 0.704624 37.7913 1.36293 38.4496C2.02124 39.1079 2.91277 39.4798 3.84375 39.4844H22.8281C23.7591 39.4798 24.6506 39.1079 25.3089 38.4496C25.9673 37.7913 26.3391 36.8997 26.3438 35.9688V32.4531H29.8594C30.7904 32.4485 31.6819 32.0766 32.3402 31.4183C32.9985 30.76 33.3704 29.8685 33.375 28.9375V9.95312C33.3707 9.39428 33.1502 8.8588 32.7598 8.45898ZM22.125 35.2656H4.54688V12.0625H16.3242L22.125 17.8633V35.2656ZM29.1562 28.2344H26.3438V16.9844C26.3395 16.4255 26.119 15.8901 25.7285 15.4902L18.6973 8.45898C18.2974 8.06851 17.762 7.84802 17.2031 7.84375H10.875V5.03125H23.3555L29.1562 10.832V28.2344ZM19.3125 23.3125C19.3125 23.8719 19.0903 24.4085 18.6947 24.8041C18.2991 25.1996 17.7626 25.4219 17.2031 25.4219H9.46875C8.90931 25.4219 8.37278 25.1996 7.9772 24.8041C7.58161 24.4085 7.35938 23.8719 7.35938 23.3125C7.35938 22.7531 7.58161 22.2165 7.9772 21.8209C8.37278 21.4254 8.90931 21.2031 9.46875 21.2031H17.2031C17.7626 21.2031 18.2991 21.4254 18.6947 21.8209C19.0903 22.2165 19.3125 22.7531 19.3125 23.3125ZM19.3125 30.3438C19.3125 30.9032 19.0903 31.4397 18.6947 31.8353C18.2991 32.2309 17.7626 32.4531 17.2031 32.4531H9.46875C8.90931 32.4531 8.37278 32.2309 7.9772 31.8353C7.58161 31.4397 7.35938 30.9032 7.35938 30.3438C7.35938 29.7843 7.58161 29.2478 7.9772 28.8522C8.37278 28.4566 8.90931 28.2344 9.46875 28.2344H17.2031C17.7626 28.2344 18.2991 28.4566 18.6947 28.8522C19.0903 29.2478 19.3125 29.7843 19.3125 30.3438Z" fill="black"/>
</svg>
