<svg width="42" height="34" viewBox="0 0 42 34" fill="none" xmlns="http://www.w3.org/2000/svg">
<path d="M35.5832 0.333008H6.4165C4.7589 0.333008 3.16919 0.991488 1.99709 2.16359C0.824984 3.33569 0.166504 4.92541 0.166504 6.58301V27.4163C0.166504 29.0739 0.824984 30.6637 1.99709 31.8358C3.16919 33.0079 4.7589 33.6663 6.4165 33.6663H35.5832C37.2408 33.6663 38.8305 33.0079 40.0026 31.8358C41.1747 30.6637 41.8332 29.0739 41.8332 27.4163V6.58301C41.8332 4.92541 41.1747 3.33569 40.0026 2.16359C38.8305 0.991488 37.2408 0.333008 35.5832 0.333008ZM35.5832 4.49967L22.0415 13.8122C21.7248 13.995 21.3655 14.0913 20.9998 14.0913C20.6341 14.0913 20.2749 13.995 19.9582 13.8122L6.4165 4.49967H35.5832Z" fill="#045097"/>
</svg>
