<svg width="18" height="18" viewBox="0 0 18 18" fill="none" xmlns="http://www.w3.org/2000/svg">
<path d="M17.0948 7.73326L15.2337 7.1777C15.105 6.72843 14.9281 6.29442 14.7059 5.88326L15.6171 4.1777C15.6512 4.11332 15.6638 4.03964 15.6528 3.96758C15.6417 3.89552 15.6078 3.82893 15.5559 3.7777L14.2282 2.44437C14.1769 2.39252 14.1103 2.35857 14.0383 2.34756C13.9662 2.33655 13.8925 2.34907 13.8282 2.38326L12.1337 3.28881C11.7185 3.05584 11.2788 2.86953 10.8226 2.73326L10.2671 0.894367C10.2436 0.826598 10.1992 0.768033 10.1403 0.727101C10.0814 0.686169 10.011 0.664982 9.93928 0.666589H8.0615C7.98936 0.666925 7.91921 0.690275 7.86125 0.733241C7.8033 0.776207 7.76057 0.836546 7.73928 0.905478L7.18372 2.73881C6.72373 2.87435 6.28026 3.06069 5.8615 3.29437L4.19484 2.39437C4.13046 2.36018 4.05677 2.34766 3.98471 2.35867C3.91266 2.36968 3.84607 2.40363 3.79484 2.45548L2.44484 3.77214C2.39298 3.82338 2.35904 3.88997 2.34803 3.96202C2.33702 4.03408 2.34954 4.10777 2.38372 4.17214L3.28372 5.83881C3.05042 6.25581 2.8641 6.6974 2.72817 7.15548L0.88928 7.71103C0.820348 7.73232 0.760008 7.77505 0.717042 7.833C0.674076 7.89096 0.650726 7.96111 0.650391 8.03326V9.91103C0.650726 9.98318 0.674076 10.0533 0.717042 10.1113C0.760008 10.1692 0.820348 10.212 0.88928 10.2333L2.73928 10.7888C2.87669 11.2393 3.06299 11.6733 3.29484 12.0833L2.38372 13.8277C2.34954 13.8921 2.33702 13.9658 2.34803 14.0378C2.35904 14.1099 2.39298 14.1765 2.44484 14.2277L3.77261 15.5555C3.82385 15.6073 3.89043 15.6413 3.96249 15.6523C4.03455 15.6633 4.10823 15.6508 4.17261 15.6166L5.88928 14.6999C6.29537 14.919 6.72373 15.0941 7.16706 15.2221L7.72261 17.0944C7.7439 17.1633 7.78663 17.2236 7.84458 17.2666C7.90254 17.3096 7.97269 17.3329 8.04484 17.3333H9.92261C9.99476 17.3329 10.0649 17.3096 10.1229 17.2666C10.1808 17.2236 10.2235 17.1633 10.2448 17.0944L10.8004 15.2166C11.2399 15.0879 11.6645 14.9128 12.0671 14.6944L13.7948 15.6166C13.8592 15.6508 13.9329 15.6633 14.005 15.6523C14.077 15.6413 14.1436 15.6073 14.1948 15.5555L15.5226 14.2277C15.5745 14.1765 15.6084 14.1099 15.6194 14.0378C15.6304 13.9658 15.6179 13.8921 15.5837 13.8277L14.6615 12.1055C14.8823 11.7014 15.0592 11.2749 15.1893 10.8333L17.0615 10.2777C17.1304 10.2564 17.1908 10.2137 17.2337 10.1557C17.2767 10.0978 17.3001 10.0276 17.3004 9.95548V8.06103C17.3037 7.99195 17.2857 7.92352 17.249 7.86493C17.2122 7.80634 17.1585 7.76039 17.0948 7.73326ZM9.00039 12.0555C8.39606 12.0555 7.8053 11.8763 7.30281 11.5405C6.80033 11.2048 6.40869 10.7276 6.17743 10.1692C5.94616 9.6109 5.88565 8.99653 6.00355 8.40381C6.12145 7.81109 6.41246 7.26664 6.83979 6.83932C7.26711 6.41199 7.81156 6.12098 8.40428 6.00308C8.997 5.88518 9.61137 5.94569 10.1697 6.17696C10.728 6.40823 11.2052 6.79986 11.541 7.30235C11.8767 7.80483 12.0559 8.39559 12.0559 8.99992C12.0559 9.81031 11.734 10.5875 11.161 11.1605C10.588 11.7336 9.81077 12.0555 9.00039 12.0555Z" fill="#978383"/>
</svg>
