<svg width="41" height="29" viewBox="0 0 41 29" fill="none" xmlns="http://www.w3.org/2000/svg">
<circle cx="9.00016" cy="12.3332" r="2.66667" fill="#736565"/>
<circle cx="15.6667" cy="19.6667" r="2.66667" fill="#736565"/>
<path d="M36.9961 2.49219H33.179V1.69922C33.179 0.762269 32.1013 0 30.7767 0C29.452 0 28.3743 0.762269 28.3743 1.69922V2.49219H14.9212V1.69922C14.9212 0.762269 13.8435 0 12.5189 0C11.1942 0 10.1165 0.762269 10.1165 1.69922V2.51314C10.0484 2.49983 9.97709 2.49219 9.90302 2.49219H6.71239C4.50463 2.49219 2.70848 3.76264 2.70848 5.32422V14.972C2.70848 15.2848 3.06707 15.5384 3.50926 15.5384C3.95146 15.5384 4.31005 15.2848 4.31005 14.972V8.32617H33.179C33.6212 8.32617 33.9798 8.07259 33.9798 7.75977C33.9798 7.44694 33.6212 7.19336 33.179 7.19336H4.31005V5.32422C4.31005 4.38727 5.38774 3.625 6.71239 3.625H9.90302C9.97709 3.625 10.0484 3.6173 10.1165 3.60404V4.33301C10.1165 5.26996 11.1942 6.03223 12.5189 6.03223C13.8435 6.03223 14.9212 5.26996 14.9212 4.33301V3.625H28.3743V4.33301C28.3743 5.26996 29.452 6.03223 30.7767 6.03223C32.1013 6.03223 33.179 5.26996 33.179 4.33301V3.625H36.9961C38.3207 3.625 39.3984 4.38727 39.3984 5.32422V26.8473C39.3984 27.4096 38.7516 27.8672 37.9566 27.8672C37.1615 27.8672 36.5147 27.4096 36.5147 26.8473V25.3821C36.5147 25.0693 36.1561 24.8157 35.7139 24.8157H26.3991C25.9569 24.8157 25.5983 25.0693 25.5983 25.3821C25.5983 25.6949 25.9569 25.9485 26.3991 25.9485H34.9131V26.8473C34.9131 27.2161 35.0451 27.5634 35.2771 27.8672H3.04297C2.24819 27.8672 1.60156 27.4098 1.60156 26.8477V25.9485H19.525C19.9672 25.9485 20.3258 25.6949 20.3258 25.3821C20.3258 25.0693 19.9672 24.8157 19.525 24.8157H11.524C12.9232 23.9633 13.8118 22.7025 13.8118 21.2969C13.8118 18.7359 10.8661 16.6523 7.24539 16.6523C3.62466 16.6523 0.678982 18.7359 0.678982 21.2969C0.678982 22.7025 1.56753 23.9633 2.96681 24.8157H0.800781C0.35859 24.8157 0 25.0693 0 25.3821V26.8477C0 28.0344 1.36509 29 3.04297 29H37.9566C39.6347 29 41 28.0343 41 26.8473V5.32422C41 3.76264 39.2038 2.49219 36.9961 2.49219ZM13.3196 4.33301C13.3196 4.64532 12.9604 4.89941 12.5189 4.89941C12.0773 4.89941 11.7181 4.64532 11.7181 4.33301V1.69922C11.7181 1.3869 12.0773 1.13281 12.5189 1.13281C12.9604 1.13281 13.3196 1.3869 13.3196 1.69922V4.33301ZM31.5774 4.33301C31.5774 4.64532 31.2182 4.89941 30.7767 4.89941C30.3351 4.89941 29.9759 4.64532 29.9759 4.33301V1.69922C29.9759 1.3869 30.3351 1.13281 30.7767 1.13281C31.2182 1.13281 31.5774 1.3869 31.5774 1.69922V4.33301ZM2.28054 21.2969C2.28054 19.3605 4.50776 17.7852 7.24539 17.7852C9.98302 17.7852 12.2102 19.3605 12.2102 21.2969C12.2102 23.2332 9.98302 24.8086 7.24539 24.8086C4.50776 24.8086 2.28054 23.2332 2.28054 21.2969Z" fill="#1F1F20"/>
<circle cx="22.3332" cy="19.6667" r="2.66667" fill="#736565"/>
<circle cx="29.0002" cy="19.6667" r="2.66667" fill="#736565"/>
<path d="M38.3333 19.6667C38.3333 21.1394 37.1394 22.3333 35.6667 22.3333C34.1939 22.3333 33 21.1394 33 19.6667C33 18.1939 34.1939 17 35.6667 17C37.1394 17 38.3333 18.1939 38.3333 19.6667Z" fill="#736565"/>
<circle cx="15.6667" cy="12.3332" r="2.66667" fill="#736565"/>
<circle cx="22.3332" cy="12.3332" r="2.66667" fill="#736565"/>
<circle cx="29.0002" cy="12.3332" r="2.66667" fill="#736565"/>
<circle cx="35.6667" cy="12.3332" r="2.66667" fill="#736565"/>
</svg>
